<svg xmlns="http://www.w3.org/2000/svg" viewBox="0 0 200 200" fill="none">
  <circle cx="100" cy="100" r="96" fill="#2C3B2D"/>
  <line x1="100" y1="148" x2="100" y2="72" stroke="#D4A843" stroke-width="2.5" stroke-linecap="round"/>
  <ellipse cx="100" cy="65" rx="6" ry="10" fill="#D4A843"/>
  <ellipse cx="91" cy="76" rx="5.5" ry="9" fill="#D4A843" transform="rotate(-22 91 76)"/>
  <ellipse cx="109" cy="76" rx="5.5" ry="9" fill="#D4A843" transform="rotate(22 109 76)"/>
  <ellipse cx="87" cy="91" rx="5" ry="8.5" fill="#D4A843" transform="rotate(-28 87 91)"/>
  <ellipse cx="113" cy="91" rx="5" ry="8.5" fill="#D4A843" transform="rotate(28 113 91)"/>
  <path d="M100 115 Q78 108 74 92 Q88 95 100 115Z" fill="#D4A843" opacity="0.75"/>
  <path d="M100 115 Q122 108 126 92 Q112 95 100 115Z" fill="#D4A843" opacity="0.75"/>
  <text x="100" y="152" font-family="Georgia, serif" font-size="13.5" font-weight="600" fill="#F0EBE1" text-anchor="middle" letter-spacing="5">HARVEST</text>
  <text x="100" y="168" font-family="Georgia, serif" font-size="11" font-weight="400" fill="#D4A843" text-anchor="middle" letter-spacing="5.5">TABLE</text>
  <circle cx="100" cy="100" r="92" stroke="#D4A843" stroke-width="1" opacity="0.35"/>
</svg>
